<svg width="20" height="21" viewBox="0 0 20 21" fill="none" xmlns="http://www.w3.org/2000/svg">
<path d="M19 20H1V4H19V20Z" fill="white" stroke="#07403A" stroke-linecap="round" stroke-linejoin="round"/>
<path d="M1 8H19" stroke="#07403A" stroke-linecap="round" stroke-linejoin="round"/>
<path d="M5 1V5" stroke="#07403A" stroke-linecap="round" stroke-linejoin="round"/>
<path d="M15 1V5" stroke="#07403A" stroke-linecap="round" stroke-linejoin="round"/>
<rect x="4" y="11" width="2" height="2" fill="#07403A"/>
<rect x="4" y="11" width="2" height="2" fill="#07403A"/>
<rect x="4" y="11" width="2" height="2" fill="#07403A"/>
<rect x="4" y="11" width="2" height="2" fill="#07403A"/>
<rect x="4" y="15" width="2" height="2" fill="#07403A"/>
<rect x="4" y="15" width="2" height="2" fill="#07403A"/>
<rect x="4" y="15" width="2" height="2" fill="#07403A"/>
<rect x="4" y="15" width="2" height="2" fill="#07403A"/>
<rect x="9" y="11" width="2" height="2" fill="#07403A"/>
<rect x="9" y="11" width="2" height="2" fill="#07403A"/>
<rect x="9" y="11" width="2" height="2" fill="#07403A"/>
<rect x="9" y="11" width="2" height="2" fill="#07403A"/>
<rect x="9" y="15" width="2" height="2" fill="#07403A"/>
<rect x="9" y="15" width="2" height="2" fill="#07403A"/>
<rect x="9" y="15" width="2" height="2" fill="#07403A"/>
<rect x="9" y="15" width="2" height="2" fill="#07403A"/>
<rect x="14" y="11" width="2" height="2" fill="#07403A"/>
<rect x="14" y="11" width="2" height="2" fill="#07403A"/>
<rect x="14" y="11" width="2" height="2" fill="#07403A"/>
<rect x="14" y="11" width="2" height="2" fill="#07403A"/>
<rect x="14" y="15" width="2" height="2" fill="#07403A"/>
<rect x="14" y="15" width="2" height="2" fill="#07403A"/>
<rect x="14" y="15" width="2" height="2" fill="#07403A"/>
<rect x="14" y="15" width="2" height="2" fill="#07403A"/>
</svg>
