<svg width="38" height="38" viewBox="0 0 38 38" fill="none" xmlns="http://www.w3.org/2000/svg">
<path d="M26.9315 30.0478H11.0916V36.2745C13.5769 37.4129 16.2787 38.0015 19.0124 38.0001C21.7461 37.9987 24.4473 37.4073 26.9315 36.2663V30.0478Z" fill="#002231"/>
<path d="M19.0023 5.609e-07C15.142 -0.000937266 11.3729 1.17418 8.19714 3.36887C5.02135 5.56355 2.58951 8.67367 1.22548 12.285C-0.138555 15.8963 -0.370043 19.8375 0.561835 23.5837C1.49371 27.3299 3.54473 30.7033 6.44176 33.2547V16.0975H11.0915V25.7383H26.9315V16.0975H31.5629V33.2506C34.4584 30.6988 36.508 27.3258 37.439 23.5803C38.37 19.8349 38.1381 15.8947 36.7743 12.2843C35.4104 8.67384 32.9793 5.56447 29.8044 3.36999C26.6296 1.17551 22.8617 5.71266e-06 19.0023 5.609e-07V5.609e-07ZM19.0023 17.8766C18.3931 17.8766 17.7976 17.696 17.2911 17.3575C16.7846 17.0191 16.3898 16.538 16.1567 15.9752C15.9236 15.4124 15.8626 14.7931 15.9814 14.1956C16.1002 13.5982 16.3936 13.0493 16.8244 12.6186C17.2551 12.1878 17.8039 11.8944 18.4014 11.7756C18.9989 11.6568 19.6182 11.7177 20.181 11.9509C20.7438 12.184 21.2249 12.5788 21.5633 13.0853C21.9018 13.5918 22.0824 14.1874 22.0824 14.7965C22.0813 15.6127 21.7563 16.3951 21.1788 16.9718C20.6013 17.5486 19.8185 17.8726 19.0023 17.8726V17.8766Z" fill="#002231"/>
</svg>
