<svg width="173" height="54" viewBox="0 0 173 54" fill="none" xmlns="http://www.w3.org/2000/svg">
<path d="M85.5925 34.9245V26.698H79.594V23.9162H85.5925V16.7312H88.8356V34.9245H85.5925ZM81.0046 18.3791C80.2839 24.6545 76.487 29.3962 69.614 32.6042L67.3464 30.2312C69.3064 29.5984 71.2576 28.4338 73.1999 26.7375C75.1511 25.0412 76.4123 23.1824 76.9836 21.1609H68.7966V18.3791H81.0046ZM72.4221 41.279V32.736H75.7312V38.4973H89.3234V41.279H72.4221Z" fill="#57838B"/>
<path d="M114.557 25.7488V31.5759H111.248V16.7312H114.557V22.967H118.42V25.7488H114.557ZM107.952 18.1023C107.064 24.0876 103.21 28.6184 96.3898 31.6945L94.0431 29.1237C96.2843 28.4997 98.2882 27.4319 100.055 25.9201C101.821 24.3996 103.056 22.7209 103.759 20.884H95.6383V18.1023H107.952ZM106.488 42.0568C103.79 42.0568 101.703 41.591 100.226 40.6594C98.7497 39.7365 98.0114 38.5104 98.0114 36.9811C98.0114 35.4606 98.7585 34.2434 100.253 33.3293C101.747 32.4152 103.825 31.9582 106.488 31.9582C109.16 31.9582 111.239 32.4152 112.724 33.3293C114.218 34.2346 114.965 35.4519 114.965 36.9811C114.965 38.5192 114.223 39.7497 112.737 40.6725C111.261 41.5954 109.178 42.0568 106.488 42.0568ZM106.488 34.7136C103.122 34.7136 101.439 35.4694 101.439 36.9811C101.439 38.528 103.122 39.3015 106.488 39.3015C109.872 39.3015 111.564 38.528 111.564 36.9811C111.564 35.4694 109.872 34.7136 106.488 34.7136Z" fill="#57838B"/>
<path d="M141.557 30.5608V42.1623H138.248V16.7312H141.557V27.779H145.538V30.5608H141.557ZM121.399 23.0198V20.238H127.49V16.7312H130.838V20.238H136.942V23.0198H121.399ZM129.111 36.2561C127.16 36.2561 125.561 35.6979 124.312 34.5817C123.064 33.4567 122.44 32.0329 122.44 30.3103C122.44 28.5349 123.056 27.0935 124.286 25.9861C125.517 24.8699 127.134 24.3117 129.138 24.3117C131.124 24.3117 132.741 24.8699 133.989 25.9861C135.237 27.1023 135.861 28.5525 135.861 30.3366C135.861 32.0681 135.237 33.4875 133.989 34.5949C132.741 35.7023 131.115 36.2561 129.111 36.2561ZM129.138 27.0935C128.101 27.0935 127.274 27.3879 126.659 27.9768C126.044 28.5569 125.736 29.3347 125.736 30.3103C125.736 31.2419 126.04 32.0022 126.646 32.591C127.252 33.1799 128.083 33.4743 129.138 33.4743C130.184 33.4743 131.014 33.1755 131.629 32.5778C132.253 31.9802 132.565 31.2243 132.565 30.3103C132.565 29.3523 132.253 28.5788 131.629 27.99C131.014 27.3923 130.184 27.0935 129.138 27.0935Z" fill="#003142"/>
<path d="M168.293 29.1501V42.1623H164.997V16.7312H168.293V26.3684H172.538V29.1501H168.293ZM163.112 34.7399C161.143 35.0124 157.838 35.1486 153.198 35.1486H149.361V18.8933H161.49V21.675H152.657V32.3933H153.936C158.04 32.3933 160.998 32.2658 162.808 32.0109L163.112 34.7399Z" fill="#003142"/>
<path d="M38.2713 42.6995H15.762V51.5478C19.2938 53.1656 23.1332 54.002 27.0179 54C30.9026 53.998 34.7411 53.1576 38.2713 51.5362V42.6995Z" fill="#002231"/>
<path d="M27.0032 7.97067e-07C21.5175 -0.0013319 16.1615 1.66857 11.6485 4.78732C7.13558 7.90608 3.67981 12.3257 1.74146 17.4576C-0.196893 22.5895 -0.52585 28.1901 0.798395 33.5136C2.12264 38.8371 5.03723 43.6309 9.15405 47.2565V22.8753H15.7616V36.5754H38.2709V22.8753H44.8524V47.2507C48.967 43.6246 51.8797 38.8313 53.2026 33.5088C54.5256 28.1863 54.1961 22.5871 52.258 17.4565C50.3199 12.3259 46.8651 7.90739 42.3536 4.78892C37.842 1.67045 32.4876 8.11797e-06 27.0032 7.97067e-07V7.97067e-07ZM27.0032 25.4035C26.1375 25.4035 25.2913 25.1469 24.5715 24.6659C23.8517 24.185 23.2907 23.5014 22.9594 22.7016C22.6282 21.9018 22.5415 21.0217 22.7103 20.1727C22.8792 19.3236 23.2961 18.5437 23.9082 17.9316C24.5204 17.3195 25.3003 16.9026 26.1493 16.7337C26.9984 16.5648 27.8784 16.6515 28.6782 16.9828C29.478 17.314 30.1616 17.8751 30.6425 18.5949C31.1235 19.3147 31.3802 20.1609 31.3802 21.0266C31.3787 22.1864 30.9168 23.2982 30.0961 24.1178C29.2755 24.9374 28.1631 25.3978 27.0032 25.3978V25.4035Z" fill="#002231"/>
</svg>
